<svg height="504pt" viewBox="-114 0 504 504.8616" width="504pt" xmlns="http://www.w3.org/2000/svg"><path d="m201.035156 454.5h-8.390625c-4.636719 0-8.394531 3.757812-8.394531 8.394531s3.757812 8.394531 8.394531 8.394531h8.390625c4.636719 0 8.394532-3.757812 8.394532-8.394531s-3.757813-8.394531-8.394532-8.394531zm0 0"/><path d="m159.070312 454.5h-58.753906c-4.636718 0-8.394531 3.757812-8.394531 8.394531s3.757813 8.394531 8.394531 8.394531h58.753906c4.632813 0 8.390626-3.757812 8.390626-8.394531s-3.757813-8.394531-8.390626-8.394531zm0 0"/><path d="m19.871094 215.566406c-16.8125 7.804688-24.113282 27.761719-16.316406 44.574219l22.578124 48.683594c.3125 24.503906 5.824219 48.660156 16.175782 70.875 3.769531 9.898437 8.734375 19.300781 14.78125 28 .882812 1.378906 1.332031 2.996093 1.285156 4.632812v67.347657c0 13.910156 11.273438 25.183593 25.179688 25.183593h135.039062c13.910156 0 25.183594-11.273437 25.183594-25.183593v-25.179688c.441406-13.328125 5.503906-26.085938 14.316406-36.089844 21.453125-21.402344 19.324219-55.398437 19.246094-56.238281v-83.933594c0-18.542969-15.03125-33.574219-33.574219-33.574219h-.511719v-209.28125c.664063-12.289062-5.449218-23.957031-15.933594-30.40625-10.484374-6.449218-23.65625-6.644531-34.328124-.507812-10.667969 6.136719-17.125 17.617188-16.824219 29.921875v168.828125c0 2.515625-1.503907 4.121094-4.449219 4.757812-3.757812.972657-7.691406-.738281-9.542969-4.144531-.085937-.203125-.261719-.320312-.363281-.503906l-18.464844-39.863281c-5.566406-11.832032-17.449218-19.398438-30.527344-19.4375-13.695312-.023438-25.988281 8.390625-30.921874 21.167968-12.667969-7.125-28.488282-5.265624-39.160157 4.605469-10.671875 9.875-13.753906 25.503907-7.632812 38.6875l1.972656 4.246094c-5.882813-.601563-11.824219.375-17.207031 2.832031zm240.683594 62.671875v84.503907c0 .277343 1.679687 27.875-14.34375 43.855468-11.960938 13.136719-18.785157 30.144532-19.222657 47.902344v25.179688c0 4.636718-3.757812 8.394531-8.394531 8.394531h-135.066406c-4.632813 0-8.390625-3.757813-8.390625-8.394531v-67.332032c.054687-5.039062-1.425781-9.972656-4.25-14.148437-5.277344-7.574219-9.605469-15.765625-12.890625-24.394531-.109375-.300782-.234375-.609376-.371094-.894532-.058594-.121094-2.171875-4.617187-4.773438-11.636718 11.539063 11.40625 29.589844 12.910156 42.859376 3.570312 13.265624-9.335938 17.941406-26.835938 11.101562-41.550781l-1.941406-4.195313c1.042968.101563 2.089844.226563 3.140625.226563 4.847656-.003907 9.632812-1.058594 14.035156-3.089844 3.652344-1.71875 6.96875-4.074219 9.792969-6.957031 7.664062 7.019531 17.675781 10.917968 28.070312 10.929687h33.570313v9.980469c-13.5 5.203125-24.839844 14.839844-32.152344 27.328125-2.574219 3.855469-1.53125 9.066406 2.324219 11.640625 3.855468 2.574219 9.070312 1.53125 11.640625-2.324219 13.671875-20.515625 26.265625-21.445312 26.582031-21.445312 4.636719 0 8.394531-3.757813 8.394531-8.394531v-16.785157h16.71875c4.636719 0 8.394531-3.757812 8.394531-8.394531s-3.757812-8.394531-8.394531-8.394531h-67.078125c-13.910156 0-25.183594-11.273438-25.183594-25.179688 0-9.269531 7.515626-16.785156 16.789063-16.785156h92.328125c9.242188.039063 16.710938 7.542969 16.710938 16.785156zm-85.328126-53.851562c10.320313-1.792969 17.816407-10.8125 17.683594-21.285157v-168.558593c.058594-4.476563 1.910156-8.742188 5.136719-11.84375 6.671875-6.363281 17.21875-6.191407 23.679687.386719 3.136719 3.25 4.832032 7.628906 4.699219 12.144531v209.433593h-45.535156l-9.15625-19.816406c1.171875-.078125 2.339844-.230468 3.492187-.460937zm-69.457031-61.976563c8.433594-3.726562 18.304688-.121094 22.34375 8.164063l34.3125 74.089843h-10.910156c-8.035156.027344-15.785156 2.960938-21.824219 8.261719l-33.019531-71.210937c-1.9375-7.78125 1.863281-15.851563 9.097656-19.304688zm-8.9375 20.050782v.210937zm-47.003906 6.179687c1.511719-4.183594 4.636719-7.585937 8.679687-9.445313 8.402344-3.808593 18.308594-.171874 22.25 8.167969 0 .074219.402344.839844.445313.898438v.074219l37.820313 81.660156c-.703126 2.691406-1.066407 5.460937-1.082032 8.242187.011719 5.914063 1.289063 11.753907 3.742188 17.132813-1.679688 2.433594-3.980469 4.375-6.664063 5.621094-8.390625 3.855468-18.324219.230468-22.257812-8.125l-15.109375-32.566407-27.304688-58.886719c-1.890625-4.019531-2.085937-8.632812-.542968-12.800781zm-10.070313 41.644531c4.183594 1.519532 7.589844 4.652344 9.449219 8.699219l23.25 50.132813 5.035157 10.828124 14.101562 30.398438c3.644531 8.363281-.050781 18.101562-8.328125 21.9375-8.273437 3.835938-18.097656.367188-22.121094-7.816406l-42.363281-91.40625c-2.84375-6.15625-1.707031-13.414063 2.882812-18.40625 4.589844-4.988282 11.730469-6.726563 18.101563-4.40625zm0 0"/></svg>