<svg height="512pt" viewBox="-61 0 512 512.00319" width="512pt" xmlns="http://www.w3.org/2000/svg"><path d="m195.453125 477.871094h8.535156c4.710938 0 8.53125-3.820313 8.53125-8.535156 0-4.710938-3.820312-8.53125-8.53125-8.53125h-8.535156c-4.710937 0-8.53125 3.820312-8.53125 8.53125 0 4.714843 3.820313 8.535156 8.53125 8.535156zm0 0"/><path d="m161.320312 460.804688h-59.730468c-4.714844 0-8.535156 3.820312-8.535156 8.53125 0 4.714843 3.820312 8.535156 8.535156 8.535156h59.730468c4.714844 0 8.535157-3.820313 8.535157-8.535156 0-4.710938-3.820313-8.53125-8.535157-8.53125zm0 0"/><path d="m26.128906 312.722656c.324219 24.910156 5.929688 49.464844 16.441406 72.046875 3.832032 10.0625 8.878907 19.621094 15.027344 28.460938.910156 1.402343 1.371094 3.046875 1.324219 4.71875v68.453125c0 14.140625 11.460937 25.601562 25.597656 25.601562h136.535157c14.136718 0 25.601562-11.460937 25.601562-25.601562v-28.347656c0-16.035157.765625-31.453126 10-43.902344 3.410156-4.347656 7.183594-8.398438 11.28125-12.109375 28.253906-26.949219 44.167969-61.566407 59.535156-95.042969 14.882813-32.359375 28.921875-62.925781 53.214844-87.222656 8.589844-7.296875 11.683594-19.195313 7.730469-29.753906-5.675781-11.8125-17.726563-19.21875-30.828125-18.945313-23.332032 0-60.589844 41.378906-75.367188 63.539063-5.03125 7.636718-10.917968 14.671874-17.546875 20.96875-1.707031 1.59375-3.464843 3.140624-5.261719 4.605468-2.539062 2.109375-5.246093 4.011719-8.089843 5.683594-.875.464844-1.660157 1.085938-2.3125 1.828125-.34375.203125-.648438.46875-.992188.683594-.339843.210937-.734375.375-1.089843.578125v-234.257813c.1875-9.054687-3.246094-17.816406-9.539063-24.332031-6.296875-6.515625-14.929687-10.25-23.992187-10.37109375-9.011719-.12109425-17.71875 3.28906275-24.25 9.50390575-6.597657 6.328126-10.378907 15.042969-10.488282 24.183594v171.640625c0 2.558594-1.527344 4.191407-4.523437 4.839844-3.816407.976563-7.8125-.757813-9.710938-4.214844-.117187-.1875-.246093-.367187-.382812-.539062l-18.773438-40.5c-5.65625-12.03125-17.738281-19.726563-31.035156-19.761719-13.894531.023438-26.363281 8.535156-31.445313 21.46875-12.890624-7.253906-28.992187-5.351562-39.839843 4.703125-10.851563 10.058594-13.964844 25.96875-7.707031 39.371094l2.003906 4.316406c-5.976563-.613281-12.007813.378906-17.476563 2.867187-17.085937 7.949219-24.511719 28.226563-16.605469 45.332032zm151.628906-85.871094c10.488282-1.824218 18.101563-10.992187 17.96875-21.640624v-171.363282c.066407-4.550781 1.949219-8.886718 5.222657-12.042968 3.214843-3.214844 7.632812-4.933594 12.179687-4.734376 4.550782.046876 8.894532 1.929688 12.042969 5.21875 3.148437 3.289063 4.839844 7.707032 4.6875 12.257813v241.375l-3.855469 1.175781c-12.988281 3.429688-24.238281 11.5625-31.574218 22.816406-4.800782 7.371094-7.414063 15.953126-7.542969 24.75 0 4.710938 3.820312 8.53125 8.535156 8.53125 4.710937 0 8.53125-3.820312 8.53125-8.53125.132813-5.578124 1.832031-11.003906 4.90625-15.660156 5.136719-7.765625 12.996094-13.324218 22.027344-15.582031 9.074219-2.339844 17.804687-5.859375 25.964843-10.46875 3.082032-1.878906 6.035157-4.019531 8.953126-6.1875l.597656-.410156c1.132812-.855469 2.261718-1.707031 3.371094-2.636719 2.226562-1.773438 4.625-3.824219 7.277343-6.367188.476563-.453124 1.015625-.851562 1.492188-1.304687.214843-.214844.300781-.496094.496093-.726563 6.484376-6.492187 12.308594-13.617187 17.382813-21.265624 18.125-27.183594 49.5625-55.933594 61.167969-55.933594 6.183594-.1875 11.972656 3.042968 15.058594 8.40625 1.390624 3.34375 0 7.097656-4.027344 11.160156-26.453125 26.453125-41.8125 59.851562-56.644532 92.160156-15.359374 33.492188-29.925781 65.125-55.816406 89.820313-4.8125 4.371093-9.238281 9.152343-13.21875 14.292969-12.320312 16.617187-13.351562 35.839843-13.351562 54.070312v28.371094c0 4.714844-3.820313 8.535156-8.535156 8.535156h-136.535157c-4.710937 0-8.53125-3.820312-8.53125-8.535156v-68.453125c.054688-5.125-1.453125-10.140625-4.316406-14.386719-5.363281-7.703125-9.765625-16.03125-13.117187-24.796875-.105469-.316406-.230469-.625-.375-.921875-.058594-.121094-2.21875-4.695312-4.875-11.847656 11.761718 11.480468 30.03125 12.949218 43.476562 3.496094 13.441406-9.449219 18.242188-27.140626 11.421875-42.089844l-1.980469-4.265625c1.039063.09375 2.082032.269531 3.121094.269531 13.917969.011719 26.429688-8.46875 31.574219-21.398438 12.898437 7.183594 28.953125 5.246094 39.773437-4.800781 10.820313-10.046875 13.941406-25.914062 7.730469-39.308593l-14.164063-30.550782c1.175782-.085937 2.34375-.253906 3.5-.496094zm-70.605468-63.007812c8.546875-3.839844 18.597656-.148438 22.628906 8.3125l43.113281 92.933594c3.933594 8.546875.210938 18.664062-8.320312 22.625-8.527344 3.8125-18.542969.15625-22.605469-8.253906 0-.101563-.144531-.171876-.195312-.273438-.40625-1.453125-.910157-2.878906-1.503907-4.265625l-42.359375-91.308594c-2.136718-7.960937 1.761719-16.304687 9.242188-19.769531zm-48.121094 17.066406c4.109375-1.90625 8.800781-2.101562 13.054688-.542968 4.25 1.558593 7.707031 4.738281 9.609374 8.84375l43.09375 92.894531c3.960938 8.550781.246094 18.691406-8.300781 22.65625-8.546875 3.96875-18.695312.261719-22.664062-8.285157l-28.734375-61.933593-14.359375-31.019531c-1.90625-4.105469-2.101563-8.800782-.542969-13.050782 1.554688-4.253906 4.738281-7.710937 8.84375-9.613281zm-32.074219 52.503906c2.238281-1.042968 4.679688-1.578124 7.148438-1.578124 6.648437-.007813 12.695312 3.847656 15.496093 9.875l28.734376 61.933593 14.359374 30.949219c2.898438 5.578125 2.496094 12.292969-1.042968 17.484375-3.539063 5.191406-9.644532 8.015625-15.890625 7.359375-6.25-.660156-11.628907-4.699219-14.007813-10.515625l-43.109375-92.917969c-3.949219-8.546875-.230469-18.675781 8.3125-22.640625zm0 0"/></svg>