<svg height="511pt" viewBox="-38 0 511 511.86434" width="511pt" xmlns="http://www.w3.org/2000/svg"><path d="m56.597656 268.921875c8.015625 15.230469 13.515625 31.652344 16.292969 48.636719 1.535156 9.953125 2.703125 19.773437 3.863281 29.46875 1.871094 19.945312 5.242188 39.722656 10.085938 59.160156 2.875 11.027344 7.660156 21.460938 14.140625 30.832031.144531.425781.324219.839844.539062 1.234375.898438 1.410156 1.351563 3.058594 1.304688 4.730469v43.28125c0 14.136719 11.460937 25.597656 25.601562 25.597656h136.53125c14.140625 0 25.601563-11.460937 25.601563-25.597656v-3.160156c0-16.023438.765625-31.445313 10-43.894531l1.707031-2.378907c1.960937-3.292969 4.574219-6.152343 7.679687-8.398437 19.949219-10.875 37.136719-26.1875 50.234376-44.757813 15.980468-22.300781 37.390624-40.15625 62.199218-51.863281 9.90625-3.859375 15.511719-14.375 13.195313-24.75-4.976563-14.757812-18.523438-24.929688-34.082031-25.597656-20.121094 0-56.808594 10.101562-75.367188 37.929687-2.058594 3.132813-4.339844 6.113281-6.828125 8.917969-4.804687 5.390625-12.515625 7.109375-19.15625 4.265625-6.582031-2.519531-10.8125-8.96875-10.503906-16.007813.058593-1.5625.058593-3.191406.058593-4.890624-.125-3.867188.125-7.742188.75-11.5625 0-.109376 0-.210938 0-.316407 0-.101562.09375-.210937.105469-.332031l6.664063-59.945312c.789062-6.960938 5.539062-12.832032 12.175781-15.0625 4.035156-1.367188 8.425781-1.238282 12.375.359374l37.066406 17.648438c16.175781 9.652344 37.113281 4.410156 46.832031-11.726562 4.429688-7.367188 5.589844-16.25 3.203126-24.507813-2.390626-8.261719-8.117188-15.148437-15.796876-19.011719l-52.175781-26.667968c-9.019531-4.511719-18.710937-7.539063-28.695312-8.960938l-11.144531-1.59375c-24.496094-3.40625-48.574219 8.554688-60.664063 30.132812l-9.566406 17.226563v-154.25c.175781-9.054687-3.265625-17.808594-9.558594-24.324219-6.296875-6.515625-14.925781-10.253906-23.984375-10.386718-9.058594-.242188-17.824219 3.214843-24.277344 9.574218-6.542968 6.289063-10.304687 14.929688-10.445312 24.003906l-1.972656 132.410157-16.664063-77.242188-15.683594-68.941406c-3.675781-18.15625-20.800781-30.351563-39.160156-27.886719-9.214844 1.488282-17.414063 6.6875-22.683594 14.386719-5.273437 7.699219-7.15625 17.226563-5.210937 26.351563l29.601562 147.34375-24.910156-48.636719c-7.78125-16.867188-27.386719-24.710938-44.65625-17.871094-8.644531 3.671875-15.394531 10.746094-18.65625 19.550781-3.265625 8.808594-2.757812 18.570313 1.402344 26.992188zm-38.058594-121.542969c1.636719-4.402344 5.019532-7.9375 9.347657-9.769531 8.957031-3.1875 18.859375 1.070313 22.714843 9.761719l47.605469 92.910156c2.394531 4.449219 7.671875 6.488281 12.433594 4.804688 4.761719-1.683594 7.585937-6.589844 6.648437-11.554688l-39.398437-195.957031c-.992187-4.578125-.054687-9.359375 2.589844-13.222657 2.644531-3.863281 6.761719-6.46875 11.386719-7.199218 9.417968-1.042969 18.03125 5.394531 19.703124 14.71875l15.683594 68.949218 28.496094 132.003907c1.109375 5.355469 6.09375 9.003906 11.535156 8.441406 5.367188-.511719 9.480469-4.996094 9.53125-10.386719l2.808594-188.648437c.070312-4.539063 1.953125-8.859375 5.230469-12.003907 3.207031-3.222656 7.617187-4.949218 12.160156-4.761718 4.507813.03125 8.816406 1.875 11.945313 5.121094 3.203124 3.300781 4.933593 7.757812 4.804687 12.355468v187.324219c.050781.367187.125.734375.222656 1.089844.058594.582031.175781 1.152343.351563 1.707031.425781.988281.972656 1.917969 1.628906 2.773438.410156.433593.867188.820312 1.355469 1.160156.269531.253906.554687.488281.855469.710937.136718.074219.28125.066407.417968.136719 1.058594.402344 2.160156.6875 3.285156.851562.152344 0 .28125.085938.433594.085938.371094-.046875.738282-.121094 1.101563-.222656.578125-.054688 1.152343-.171875 1.707031-.351563.507812-.191406.992188-.4375 1.449219-.730469.472656-.253906.914062-.554687 1.324219-.898437.433593-.40625.824218-.863281 1.160156-1.355469.257812-.265625.492187-.550781.707031-.855468l25.601563-46.011719c8.644531-15.398438 25.835937-23.9375 43.332031-21.519531l11.09375 1.585937c8.144531 1.164063 16.046875 3.632813 23.40625 7.304687l52.121093 26.703126c3.445313 1.71875 6.019532 4.800781 7.09375 8.5 1.074219 3.699218.558594 7.679687-1.425781 10.980468-2.449219 3.957032-6.382812 6.765625-10.921875 7.796875-4.535156 1.027344-9.296875.195313-13.210937-2.320312l-38.121094-18.183594c-10.1875-4.347656-21.835937-3.613281-31.398437 1.980469-9.5625 5.597656-15.910157 15.390625-17.113282 26.402344l-6.664062 59.945312v.09375c-.734375 4.636719-1.058594 9.328125-.964844 14.023438v4.207031c-.59375 14.21875 7.882812 27.25 21.121094 32.476562 13.296875 5.554688 28.652344 2.082031 38.265625-8.652343 3.050781-3.417969 5.855469-7.050782 8.386719-10.871094 14.695312-22.042969 45.292968-30.277344 61.125-30.277344 7.671874.621094 14.386718 5.410156 17.464843 12.46875.25 1.054688.71875 3.035156-4.214843 5.492188-27.046876 12.855468-50.414063 32.332031-67.933594 56.621093-11.621094 16.75-26.996094 30.550781-44.902344 40.300781-5.472656 3.371094-10.085938 7.972657-13.464844 13.441407l-1.585937 2.183593c-12.332031 16.625-13.363281 35.839844-13.363281 54.066407v3.160156c0 4.710937-3.820313 8.53125-8.535157 8.53125h-136.53125c-4.714843 0-8.535156-3.820313-8.535156-8.53125v-43.265625c0-.324219-.050781-.632812-.066406-.957031 0-.117188.066406-.210938.066406-.332031-.0625-5.210938-1.785156-10.261719-4.914063-14.429688-5.378906-7.773438-9.335937-16.441406-11.683593-25.597656-4.601563-18.617188-7.804688-37.550782-9.589844-56.644532-1.1875-9.875-2.382813-19.894531-3.953125-30.054687-3.042969-18.839844-9.121094-37.058594-17.996094-53.949219l-52.554687-100.300781c-2.054688-4.167969-2.292969-9.003906-.660157-13.355469zm0 0"/><path d="m239.359375 477.730469h8.53125c4.714844 0 8.535156-3.820313 8.535156-8.53125 0-4.714844-3.820312-8.535157-8.535156-8.535157h-8.53125c-4.714844 0-8.535156 3.820313-8.535156 8.535157 0 4.710937 3.820312 8.53125 8.535156 8.53125zm0 0"/><path d="m145.492188 477.730469h59.730468c4.714844 0 8.535156-3.820313 8.535156-8.53125 0-4.714844-3.820312-8.535157-8.535156-8.535157h-59.730468c-4.714844 0-8.535157 3.820313-8.535157 8.535157 0 4.710937 3.820313 8.53125 8.535157 8.53125zm0 0"/></svg>