<svg height="512pt" viewBox="-94 0 512 512.04277" width="512pt" xmlns="http://www.w3.org/2000/svg"><path d="m318.941406 49.09375c-7.3125-11.707031-20.957031-17.851562-34.570312-15.582031-13.609375 2.273437-24.515625 12.519531-27.628906 25.964843l-26.503907 113.792969v-137.710937c.328125-18.578125-13.921875-34.171875-32.453125-35.5156252-9.34375-.4687498-18.472656 2.9218752-25.246094 9.3750002-6.777343 6.449219-10.605468 15.402343-10.59375 24.757812v195.492188l-25.652343-167.050781v-.058594c-2.828125-18.640625-20.230469-31.457032-38.867188-28.628906-18.640625 2.828124-31.457031 20.230468-28.632812 38.867187l27.914062 184.609375-30.515625-89.257812c-.421875-1.1875-1.105468-2.261719-2.003906-3.148438-3.21875-7.121094-8.765625-12.933594-15.726562-16.476562-8.855469-4.328126-19.164063-4.570313-28.210938-.667969-16.421875 7.785156-24.273438 26.75-18.160156 43.863281l67.507812 198.425781c4.609375 13.539063 10.996094 26.410157 18.996094 38.273438l2.753906 4.09375c.910156 1.464843 1.371094 3.160156 1.332032 4.882812v49.046875c-.027344 14.085938 11.34375 25.535156 25.429687 25.601563h136.703125c14.0625-.085938 25.40625-11.535157 25.351562-25.601563v-9.035156c.519532-13.355469 5.644532-26.125 14.507813-36.128906 21.8125-21.820313 19.625-56.371094 19.558594-57.234375v-85.332031c-.023438-16.125-11.3125-30.042969-27.085938-33.390626l36.054688-190.355468c2.109375-8.847656.574219-18.167969-4.257813-25.871094zm-12.433594 22.339844-36.574218 193.140625h-83.625c-18.851563 0-34.136719 15.285156-34.136719 34.136719 0 23.5625 19.105469 42.664062 42.667969 42.664062h34.132812v10.148438c-13.734375 5.292968-25.269531 15.097656-32.707031 27.800781-2.617187 3.921875-1.554687 9.222656 2.367187 11.839843 3.925782 2.617188 9.226563 1.554688 11.839844-2.367187 13.894532-20.863281 26.703125-21.777344 27.027344-21.804687 4.710938 0 8.53125-3.820313 8.53125-8.53125v-17.085938h17.066406c4.714844 0 8.535156-3.820312 8.535156-8.53125 0-4.714844-3.820312-8.535156-8.535156-8.535156h-68.265625c-14.136719 0-25.601562-11.460938-25.601562-25.597656 0-9.425782 7.640625-17.066407 17.066406-17.066407h93.867187c9.425782 0 17.066407 7.640625 17.066407 17.066407v85.910156c0 .285156 1.65625 28.339844-14.582031 44.589844-12.171876 13.347656-19.125 30.636718-19.582032 48.699218-.007812.054688-.007812.105469 0 .160156v8.371094c0 4.621094-3.671875 8.402344-8.289062 8.535156h-136.667969c-4.664063-.050781-8.40625-3.871093-8.363281-8.535156v-49.066406c.039062-5.082031-1.414063-10.0625-4.179688-14.328125l-2.835937-4.214844c-7.152344-10.601562-12.867188-22.109375-16.988281-34.21875l-67.480469-198.347656c-3.214844-8.707031.546875-18.445313 8.777343-22.734375 4.433594-1.90625 9.476563-1.800781 13.824219.292969 4.054688 2.035156 7.152344 5.574219 8.628907 9.863281.328124.847656.792968 1.632812 1.375 2.328125l29.6875 86.914063c2.234374 6.910156 8.675781 11.589843 15.9375 11.578124 1.441406-.003906 2.871093-.175781 4.269531-.519531 8.65625-1.988281 14.265625-10.371093 12.796875-19.132812l-27.886719-184.625c-.679687-4.476563.449219-9.042969 3.132813-12.6875 2.6875-3.644531 6.710937-6.074219 11.1875-6.753907 9.285156-1.347656 17.933593 5.011719 19.414062 14.277344l25.660156 167.21875c1.320313 8.84375 9.246094 15.167969 18.160156 14.496094 8.917969-.671875 15.804688-8.113281 15.785157-17.054688v-195.550781c-.011719-4.671875 1.910156-9.140625 5.308593-12.347656 3.390626-3.203125 7.929688-4.90625 12.59375-4.71875 9.394532.980469 16.46875 9.003906 16.257813 18.449219v193.535156c-.003906 5.414062 4.050781 9.96875 9.429687 10.59375 5.375.625 10.367188-2.882812 11.601563-8.152344l39.160156-168.175781c1.011719-4.414063 3.742188-8.242187 7.589844-10.632813 3.84375-2.394531 8.484375-3.152343 12.890625-2.105468 4.394531.984375 8.210938 3.691406 10.589844 7.515625 2.46875 3.96875 3.214844 8.765625 2.074218 13.296875zm0 0"/><path d="m228.964844 460.84375h8.535156c4.710938 0 8.53125-3.820312 8.53125-8.535156 0-4.710938-3.820312-8.53125-8.53125-8.53125h-8.535156c-4.710938 0-8.53125 3.820312-8.53125 8.53125 0 4.714844 3.820312 8.535156 8.53125 8.535156zm0 0"/><path d="m126.566406 452.308594c0 4.714844 3.820313 8.535156 8.53125 8.535156h59.734375c4.710938 0 8.535157-3.820312 8.535157-8.535156 0-4.710938-3.824219-8.53125-8.535157-8.53125h-59.734375c-4.710937 0-8.53125 3.820312-8.53125 8.53125zm0 0"/></svg>