<svg height="512pt" viewBox="0 -17 512.20048 512" width="512pt" xmlns="http://www.w3.org/2000/svg"><path d="m42.667969 264.4375c4.710937 0 8.53125-3.820312 8.53125-8.535156v-17.066406c0-4.710938-3.820313-8.53125-8.53125-8.53125-4.714844 0-8.535157 3.820312-8.535157 8.53125v17.066406c0 4.714844 3.820313 8.535156 8.535157 8.535156zm0 0"/><path d="m42.667969 383.902344c4.710937 0 8.53125-3.820313 8.53125-8.53125v-85.335938c0-4.710937-3.820313-8.53125-8.53125-8.53125-4.714844 0-8.535157 3.820313-8.535157 8.53125v85.335938c0 4.710937 3.820313 8.53125 8.535157 8.53125zm0 0"/><path d="m31.027344 426.570312h62.839844c8.53125 0 9.660156 1.910157 11.765624 5.375.960938 1.671876 2.085938 3.242188 3.355469 4.695313 37.195313 40.660156 99.386719 41.128906 102.015625 41.128906h190.0625c18.726563-.441406 35.28125-12.285156 41.746094-29.867187 4.097656-13.125 1.621094-27.417969-6.65625-38.398438h6.605469c18.726562-.445312 35.277343-12.285156 41.742187-29.867187 4.519532-14.527344.9375-30.359375-9.386718-41.53125 12.34375-4.554688 22.03125-14.347657 26.457031-26.734375 4.75-15.175782.65625-31.734375-10.617188-42.949219-.476562-.476563-1.050781-.855469-1.554687-1.273437 12.007812-6.074219 20.332031-17.585938 22.335937-30.894532 2-13.304687-2.5625-26.757812-12.25-36.097656-7.976562-8.035156-18.835937-12.542969-30.15625-12.519531h-154.308593c-.941407-.003907-1.8125-.492188-2.308594-1.296875-.492188-.800782-.535156-1.804688-.113282-2.644532 1.230469-2.457031 2.246094-4.445312 2.621094-5.078124 8.9375-13.621094 20.289063-25.492188 33.5-35.03125l3.722656-3.003907c3.410157-2.796875 7.019532-5.375 10.613282-7.96875 30.472656-21.929687 75.554687-66.558593 75.554687-92.800781.375-16-8.632812-30.746094-23.039062-37.714844-12.773438-4.707031-27.125-.910156-35.902344 9.496094-31.921875 31.921875-71.882813 50.527344-114.183594 70.230469-43.273437 20.136719-88.011719 40.957031-122.734375 77.335937-4.921875 5.425782-10.292968 10.429688-16.050781 14.960938-16.855469 12.484375-37.332031 13.515625-58.597656 13.515625h-37.078125c-17.128906.019531-31.0078128 13.898437-31.027344 31.027343v176.878907c.0195312 17.128906 13.898438 31.007812 31.027344 31.027343zm389.121094-9.558593c6.796874 6.808593 9.238281 16.832031 6.332031 26-4.300781 10.347656-14.21875 17.25-25.414063 17.691406h-67.292968c-11.183594-.453125-21.089844-7.355469-25.386719-17.691406-2.914063-9.167969-.472657-19.195313 6.332031-26 4.78125-4.820313 11.292969-7.523438 18.082031-7.507813h69.238281c6.789063-.015625 13.300782 2.6875 18.082032 7.507813zm48.023437-42.265625c-4.300781 10.34375-14.21875 17.25-25.410156 17.691406h-117.523438c-11.183593-.453125-21.089843-7.355469-25.386719-17.691406-2.914062-9.167969-.46875-19.195313 6.332032-26 4.78125-4.820313 11.292968-7.523438 18.082031-7.507813h119.46875c6.789063-.015625 13.304687 2.6875 18.089844 7.507813 6.796875 6.804687 9.234375 16.832031 6.324219 26zm17.066406-68.265625c-4.300781 10.34375-14.21875 17.246093-25.410156 17.6875h-117.523437c-11.183594-.449219-21.089844-7.351563-25.386719-17.6875-2.910157-9.167969-.46875-19.199219 6.332031-26 4.78125-4.820313 11.292969-7.527344 18.082031-7.511719h119.46875c6.789063-.011719 13.304688 2.691406 18.089844 7.511719 6.796875 6.804687 9.234375 16.832031 6.324219 26zm-109.773437-101.777344h93.867187c6.792969-.015625 13.308594 2.691406 18.09375 7.507813 6.792969 6.808593 9.234375 16.835937 6.320313 26.003906-4.296875 10.335937-14.203125 17.238281-25.386719 17.6875h-100.453125c-11.183594-.449219-21.089844-7.351563-25.386719-17.6875-2.914062-9.171875-.472656-19.199219 6.332031-26.003906 4.78125-4.820313 11.292969-7.523438 18.082032-7.507813zm-358.398438 13.960937c.007813-7.707031 6.253906-13.953124 13.960938-13.960937h37.078125c23.269531 0 47.785156-1.304687 68.734375-16.863281 6.578125-5.109375 12.703125-10.78125 18.304687-16.945313 32.425781-33.980469 73.789063-53.230469 117.546875-73.601562 41.8125-19.464844 85-39.578125 119.046875-73.632813 6.078125-6.074218 11.886719-8.03125 17.296875-5.792968 7.910156 4.4375 12.722656 12.878906 12.511719 21.945312 0 15.257812-33.28125 53.625-68.464844 78.960938-3.855469 2.773437-7.679687 5.554687-11.382812 8.53125l-3.710938 3.003906c-14.636719 10.652344-27.214843 23.882812-37.113281 39.039062-.46875.726563-1.859375 3.355469-3.53125 6.675782-3.082031 6.132812-2.761719 13.425781.839844 19.273437 3.601562 5.84375 9.976562 9.402344 16.839844 9.40625h17.777343c-8.277343 10.980469-10.753906 25.273437-6.65625 38.398437 1.605469 5.007813 4.253907 9.621094 7.765625 13.535157-12.089844 2.117187-22.679687 9.339843-29.066406 19.816406-6.386719 10.480469-7.953125 23.203125-4.300781 34.917969 1.878906 5.8125 5.117187 11.097656 9.449219 15.410156-21.679688 7.546875-33.421876 30.96875-26.496094 52.855469 3.585937 10.359375 10.988281 18.960937 20.699218 24.046875-.492187.453125-1.066406.792968-1.550781 1.269531-11.277343 11.214844-15.367187 27.773437-10.617187 42.949219 1.496094 4.699218 3.917968 9.050781 7.117187 12.800781h-88.132812c-.5625 0-57.378907-.539063-89.453125-35.609375-.515625-.632812-.964844-1.3125-1.347656-2.03125-5.175782-9.488281-15.613282-14.859375-26.34375-13.558594h-62.839844c-7.707032-.011718-13.953125-6.253906-13.960938-13.960937zm0 0"/></svg>